<svg viewBox="0 0 14 14" fill="none" xmlns="http://www.w3.org/2000/svg">
<g id="Group 1171276709">
<path id="Vector" d="M8.49967 3.99902C8.30076 3.99902 8.11 4.07804 7.96934 4.21869C7.82869 4.35935 7.74967 4.55011 7.74967 4.74902V6.24902C7.74967 6.44794 7.82869 6.6387 7.96934 6.77935C8.11 6.92001 8.30076 6.99902 8.49967 6.99902C8.69859 6.99902 8.88935 6.92001 9.03 6.77935C9.17066 6.6387 9.24967 6.44794 9.24967 6.24902V4.74902C9.24967 4.55011 9.17066 4.35935 9.03 4.21869C8.88935 4.07804 8.69859 3.99902 8.49967 3.99902Z" fill="var(--fill-0, #0D2149)"/>
<path id="Vector_2" d="M4.75098 4.74902C4.75098 4.55011 4.82999 4.35935 4.97065 4.21869C5.1113 4.07804 5.30206 3.99902 5.50098 3.99902C5.69989 3.99902 5.89065 4.07804 6.03131 4.21869C6.17196 4.35935 6.25098 4.55011 6.25098 4.74902V6.24902C6.25098 6.44794 6.17196 6.6387 6.03131 6.77935C5.89065 6.92001 5.69989 6.99902 5.50098 6.99902C5.30206 6.99902 5.1113 6.92001 4.97065 6.77935C4.82999 6.6387 4.75098 6.44794 4.75098 6.24902V4.74902Z" fill="var(--fill-0, #0D2149)"/>
<path id="Vector_3" d="M8.5213 8.98342C8.08468 9.31849 7.54968 9.50011 6.9993 9.50011C6.44893 9.50011 5.91393 9.31849 5.4773 8.98342C5.04072 8.64849 4.72683 8.17889 4.5843 7.64742C4.56166 7.5493 4.51949 7.45674 4.4603 7.37527C4.40111 7.2938 4.32613 7.22508 4.23981 7.17322C4.1535 7.12135 4.05762 7.0874 3.9579 7.07338C3.85819 7.05937 3.75666 7.06557 3.6594 7.09164C3.56213 7.1177 3.47111 7.16309 3.39175 7.22508C3.3124 7.28708 3.24635 7.36443 3.19754 7.4525C3.14872 7.54058 3.11814 7.63758 3.10762 7.73773C3.0971 7.83788 3.10686 7.93912 3.1363 8.03542C3.36365 8.88639 3.86559 9.6385 4.5642 10.175C5.2628 10.7114 6.11898 11.0022 6.9998 11.0022C7.88063 11.0022 8.73681 10.7114 9.43541 10.175C10.134 9.6385 10.636 8.88639 10.8633 8.03542C10.8888 7.94021 10.8953 7.84091 10.8824 7.7432C10.8695 7.64549 10.8374 7.55128 10.7881 7.46594C10.7388 7.38061 10.6732 7.30582 10.595 7.24584C10.5168 7.18587 10.4275 7.14189 10.3323 7.11642C10.2371 7.09094 10.1378 7.08447 10.0401 7.09736C9.94238 7.11026 9.84817 7.14228 9.76283 7.19159C9.67749 7.24089 9.6027 7.30653 9.54273 7.38474C9.48276 7.46295 9.43878 7.55221 9.4133 7.64742C9.27104 8.17875 8.95752 8.64834 8.5213 8.98342Z" fill="var(--fill-0, #0D2149)"/>
<path id="Vector_4" fill-rule="evenodd" clip-rule="evenodd" d="M14 7C14 8.85652 13.2625 10.637 11.9497 11.9497C10.637 13.2625 8.85652 14 7 14C5.14348 14 3.36301 13.2625 2.05025 11.9497C0.737498 10.637 0 8.85652 0 7C0 5.14348 0.737498 3.36301 2.05025 2.05025C3.36301 0.737498 5.14348 0 7 0C8.85652 0 10.637 0.737498 11.9497 2.05025C13.2625 3.36301 14 5.14348 14 7ZM12.5 7C12.5 8.45869 11.9205 9.85764 10.8891 10.8891C9.85764 11.9205 8.45869 12.5 7 12.5C5.54131 12.5 4.14236 11.9205 3.11091 10.8891C2.07946 9.85764 1.5 8.45869 1.5 7C1.5 5.54131 2.07946 4.14236 3.11091 3.11091C4.14236 2.07946 5.54131 1.5 7 1.5C8.45869 1.5 9.85764 2.07946 10.8891 3.11091C11.9205 4.14236 12.5 5.54131 12.5 7Z" fill="var(--fill-0, #0D2149)"/>
</g>
</svg>
