<svg preserveAspectRatio="none" width="100%" height="100%" overflow="visible" style="display: block;" viewBox="0 0 18 18" fill="none" xmlns="http://www.w3.org/2000/svg">
<g id="Frame 1261157607">
<path id="Vector" d="M15.8647 4.93534L13.0647 2.13534C13.0211 2.09209 12.9693 2.05787 12.9125 2.03465C12.8556 2.01142 12.7947 1.99965 12.7333 2.00001H3.4C3.0287 2.00001 2.6726 2.14751 2.41005 2.41006C2.1475 2.67261 2 3.0287 2 3.40001V14.6C2 14.9713 2.1475 15.3274 2.41005 15.5899C2.6726 15.8525 3.0287 16 3.4 16H14.6C14.9713 16 15.3274 15.8525 15.5899 15.5899C15.8525 15.3274 16 14.9713 16 14.6V5.26667C16.0003 5.20526 15.9886 5.14437 15.9654 5.08752C15.9421 5.03066 15.9079 4.97894 15.8647 4.93534ZM10.8667 2.93334V5.73334H7.13333V2.93334H10.8667ZM5.26666 15.0667V11.8C5.26666 11.6762 5.31583 11.5575 5.40335 11.47C5.49087 11.3825 5.60956 11.3333 5.73333 11.3333H12.2667C12.3904 11.3333 12.5091 11.3825 12.5966 11.47C12.6842 11.5575 12.7333 11.6762 12.7333 11.8V15.0667H5.26666ZM15.0667 14.6C15.0667 14.7238 15.0175 14.8425 14.93 14.93C14.8425 15.0175 14.7238 15.0667 14.6 15.0667H13.6667V11.8C13.6667 11.4287 13.5192 11.0726 13.2566 10.8101C12.9941 10.5475 12.638 10.4 12.2667 10.4H5.73333C5.36203 10.4 5.00593 10.5475 4.74338 10.8101C4.48083 11.0726 4.33333 11.4287 4.33333 11.8V15.0667H3.4C3.27623 15.0667 3.15753 15.0175 3.07002 14.93C2.9825 14.8425 2.93333 14.7238 2.93333 14.6V3.40001C2.93333 3.27624 2.9825 3.15754 3.07002 3.07002C3.15753 2.98251 3.27623 2.93334 3.4 2.93334H6.2V5.73334C6.2 5.98087 6.29833 6.21827 6.47336 6.3933C6.6484 6.56834 6.8858 6.66667 7.13333 6.66667H10.8667C11.1142 6.66667 11.3516 6.56834 11.5266 6.3933C11.7017 6.21827 11.8 5.98087 11.8 5.73334V2.93334H12.542L15.0667 5.45801V14.6Z" fill="var(--fill-0, white)"/>
</g>
</svg>
